<svg width="41" height="36" viewBox="0 0 41 36" fill="none" xmlns="http://www.w3.org/2000/svg">
<path d="M26.2713 13.6317V7.83259C26.2713 6.55091 25.7621 5.32172 24.8558 4.41543C23.9495 3.50915 22.7204 3 21.4387 3C20.157 3 18.9278 3.50915 18.0215 4.41543C17.1152 5.32172 16.6061 6.55091 16.6061 7.83259V13.6317M31.2405 11.0633L32.8681 26.5276C32.9583 27.3846 32.2882 28.1295 31.426 28.1295H11.4513C11.248 28.1297 11.0469 28.0871 10.861 28.0045C10.6752 27.922 10.5088 27.8012 10.3727 27.6502C10.2366 27.4991 10.1338 27.3211 10.071 27.1277C10.0081 26.9343 9.98667 26.7298 10.008 26.5276L11.6369 11.0633C11.6745 10.7071 11.8426 10.3774 12.1089 10.1377C12.3752 9.89812 12.7207 9.76556 13.0789 9.76562H29.7984C30.5407 9.76562 31.1631 10.3262 31.2405 11.0633ZM17.0893 13.6317C17.0893 13.7599 17.0384 13.8828 16.9478 13.9734C16.8572 14.064 16.7343 14.115 16.6061 14.115C16.4779 14.115 16.355 14.064 16.2644 13.9734C16.1737 13.8828 16.1228 13.7599 16.1228 13.6317C16.1228 13.5035 16.1737 13.3806 16.2644 13.29C16.355 13.1993 16.4779 13.1484 16.6061 13.1484C16.7343 13.1484 16.8572 13.1993 16.9478 13.29C17.0384 13.3806 17.0893 13.5035 17.0893 13.6317ZM26.7545 13.6317C26.7545 13.7599 26.7036 13.8828 26.613 13.9734C26.5224 14.064 26.3994 14.115 26.2713 14.115C26.1431 14.115 26.0202 14.064 25.9295 13.9734C25.8389 13.8828 25.788 13.7599 25.788 13.6317C25.788 13.5035 25.8389 13.3806 25.9295 13.29C26.0202 13.1993 26.1431 13.1484 26.2713 13.1484C26.3994 13.1484 26.5224 13.1993 26.613 13.29C26.7036 13.3806 26.7545 13.5035 26.7545 13.6317Z" stroke="#272727" stroke-width="1.93304" stroke-linecap="round" stroke-linejoin="round"/>
<rect x="22.25" y="0.625" width="18" height="19" rx="9" fill="#4E8D7C"/>
<rect x="22.25" y="0.625" width="18" height="19" rx="9" stroke="#272727"/>
<path d="M31.2636 14.275C30.522 14.275 29.872 14.075 29.3136 13.675C28.7553 13.2667 28.3178 12.7042 28.0011 11.9875C27.6928 11.2625 27.5386 10.4208 27.5386 9.4625C27.5386 8.49583 27.6928 7.65417 28.0011 6.9375C28.3178 6.22083 28.7511 5.6625 29.3011 5.2625C29.8595 4.8625 30.5095 4.6625 31.2511 4.6625C31.9928 4.6625 32.6386 4.8625 33.1886 5.2625C33.747 5.6625 34.1803 6.225 34.4886 6.95C34.8053 7.66667 34.9636 8.50417 34.9636 9.4625C34.9636 10.4208 34.8095 11.2625 34.5011 11.9875C34.1928 12.7042 33.7595 13.2667 33.2011 13.675C32.6511 14.075 32.0053 14.275 31.2636 14.275ZM31.2636 12.925C31.722 12.925 32.1178 12.7833 32.4511 12.5C32.7845 12.2167 33.0428 11.8167 33.2261 11.3C33.4095 10.7833 33.5011 10.1708 33.5011 9.4625C33.5011 8.75417 33.4095 8.14167 33.2261 7.625C33.0428 7.10833 32.7845 6.70833 32.4511 6.425C32.1178 6.14167 31.7178 6 31.2511 6C30.7928 6 30.397 6.14167 30.0636 6.425C29.7303 6.70833 29.472 7.10833 29.2886 7.625C29.1053 8.14167 29.0136 8.75417 29.0136 9.4625C29.0136 10.1625 29.1053 10.775 29.2886 11.3C29.472 11.8167 29.7303 12.2167 30.0636 12.5C30.4053 12.7833 30.8053 12.925 31.2636 12.925Z" fill="#272727"/>
</svg>
