<svg width="24" height="18" viewBox="0 0 24 18" fill="none" xmlns="http://www.w3.org/2000/svg">
<path d="M4.875 13.8809C4.58854 13.8809 4.35742 13.793 4.18164 13.6172C4.00586 13.4414 3.91797 13.2168 3.91797 12.9434V11.1367C3.91797 10.8568 4.00586 10.6322 4.18164 10.4629C4.35742 10.2871 4.58854 10.1992 4.875 10.1992H7.26758C7.55404 10.1992 7.78516 10.2871 7.96094 10.4629C8.13672 10.6322 8.22461 10.8568 8.22461 11.1367V12.9434C8.22461 13.2168 8.13672 13.4414 7.96094 13.6172C7.78516 13.793 7.55404 13.8809 7.26758 13.8809H4.875ZM1.28125 6.72266V4.50586H22.6582V6.72266H1.28125ZM3.55664 17.2988C2.53451 17.2988 1.76628 17.0449 1.25195 16.5371C0.744141 16.0358 0.490234 15.2839 0.490234 14.2812V3.64648C0.490234 2.63737 0.744141 1.88216 1.25195 1.38086C1.76628 0.873047 2.53451 0.619141 3.55664 0.619141H20.373C21.3952 0.619141 22.1602 0.873047 22.668 1.38086C23.1823 1.88867 23.4395 2.64388 23.4395 3.64648V14.2812C23.4395 15.2839 23.1823 16.0358 22.668 16.5371C22.1602 17.0449 21.3952 17.2988 20.373 17.2988H3.55664ZM3.57617 15.7266H20.3535C20.8353 15.7266 21.2064 15.5996 21.4668 15.3457C21.7337 15.0853 21.8672 14.7012 21.8672 14.1934V3.73438C21.8672 3.22656 21.7337 2.84245 21.4668 2.58203C21.2064 2.32161 20.8353 2.19141 20.3535 2.19141H3.57617C3.08789 2.19141 2.71354 2.32161 2.45312 2.58203C2.19271 2.84245 2.0625 3.22656 2.0625 3.73438V14.1934C2.0625 14.7012 2.19271 15.0853 2.45312 15.3457C2.71354 15.5996 3.08789 15.7266 3.57617 15.7266Z" fill="#434343"/>
</svg>
