<svg width="15" height="16" viewBox="0 0 15 16" fill="none" xmlns="http://www.w3.org/2000/svg">
<path d="M7.5 15.0581C6.49414 15.0581 5.54688 14.8652 4.6582 14.4795C3.77441 14.0986 2.99316 13.5713 2.31445 12.8975C1.64062 12.2188 1.11084 11.4375 0.725098 10.5537C0.344238 9.66504 0.153809 8.71777 0.153809 7.71191C0.153809 6.70605 0.344238 5.76123 0.725098 4.87744C1.11084 3.98877 1.64062 3.20752 2.31445 2.53369C2.98828 1.85498 3.76709 1.3252 4.65088 0.944336C5.53955 0.558594 6.48682 0.365723 7.49268 0.365723C8.49854 0.365723 9.4458 0.558594 10.3345 0.944336C11.2231 1.3252 12.0044 1.85498 12.6782 2.53369C13.3521 3.20752 13.8818 3.98877 14.2676 4.87744C14.6533 5.76123 14.8462 6.70605 14.8462 7.71191C14.8462 8.71777 14.6533 9.66504 14.2676 10.5537C13.8818 11.4375 13.3521 12.2188 12.6782 12.8975C12.0044 13.5713 11.2231 14.0986 10.3345 14.4795C9.45068 14.8652 8.50586 15.0581 7.5 15.0581ZM7.5 14.1133C8.38379 14.1133 9.21143 13.9473 9.98291 13.6152C10.7593 13.2832 11.4404 12.8242 12.0264 12.2383C12.6172 11.6523 13.0762 10.9736 13.4033 10.2021C13.7354 9.42578 13.9014 8.5957 13.9014 7.71191C13.9014 6.82812 13.7354 6.00049 13.4033 5.229C13.0713 4.45264 12.6123 3.77148 12.0264 3.18555C11.4404 2.59473 10.7593 2.13574 9.98291 1.80859C9.21143 1.47656 8.38135 1.31055 7.49268 1.31055C6.60889 1.31055 5.77881 1.47656 5.00244 1.80859C4.23096 2.13574 3.55225 2.59473 2.96631 3.18555C2.38525 3.77148 1.92871 4.45264 1.59668 5.229C1.26953 6.00049 1.10596 6.82812 1.10596 7.71191C1.10596 8.5957 1.26953 9.42578 1.59668 10.2021C1.92871 10.9736 2.3877 11.6523 2.97363 12.2383C3.55957 12.8242 4.23828 13.2832 5.00977 13.6152C5.78125 13.9473 6.61133 14.1133 7.5 14.1133ZM7.49268 11.8281C7.41455 11.8281 7.34619 11.8037 7.2876 11.7549C7.23389 11.7012 7.20703 11.6304 7.20703 11.5425V10.9858C6.69922 10.9419 6.26221 10.7881 5.896 10.5244C5.52979 10.2559 5.29785 9.90918 5.2002 9.48438C5.19531 9.4502 5.18799 9.41846 5.17822 9.38916C5.17334 9.35498 5.1709 9.31836 5.1709 9.2793C5.1709 9.17676 5.20264 9.09375 5.26611 9.03027C5.33447 8.96191 5.41748 8.92773 5.51514 8.92773C5.60303 8.92773 5.67627 8.95459 5.73486 9.0083C5.79834 9.05713 5.84473 9.13281 5.87402 9.23535C5.92285 9.52344 6.06201 9.76514 6.2915 9.96045C6.52588 10.1558 6.83105 10.2754 7.20703 10.3193V7.96826L7.12646 7.94629C6.52588 7.80957 6.07422 7.60205 5.77148 7.32373C5.46875 7.04541 5.31738 6.68652 5.31738 6.24707C5.31738 5.76855 5.49561 5.37305 5.85205 5.06055C6.21338 4.74316 6.66504 4.55762 7.20703 4.50391V3.99854C7.20703 3.80811 7.30225 3.71289 7.49268 3.71289C7.57568 3.71289 7.64404 3.73975 7.69775 3.79346C7.75635 3.84229 7.78564 3.91064 7.78564 3.99854V4.50391C8.25928 4.54785 8.66699 4.69922 9.00879 4.95801C9.35547 5.21191 9.57275 5.53174 9.66064 5.91748C9.67041 5.95166 9.67773 5.98584 9.68262 6.02002C9.69238 6.0542 9.69727 6.08838 9.69727 6.12256C9.69727 6.2251 9.66309 6.31055 9.59473 6.37891C9.53125 6.44238 9.44824 6.47412 9.3457 6.47412C9.16992 6.47412 9.05029 6.37402 8.98682 6.17383C8.92334 5.90527 8.78418 5.68311 8.56934 5.50732C8.35938 5.33154 8.09814 5.22412 7.78564 5.18506V7.39697L7.93945 7.42627C8.56445 7.54834 9.03076 7.75586 9.33838 8.04883C9.65088 8.33691 9.80713 8.71533 9.80713 9.18408C9.80713 9.70166 9.61426 10.1216 9.22852 10.4438C8.84766 10.7612 8.3667 10.9443 7.78564 10.9932V11.5425C7.78564 11.6304 7.75635 11.7012 7.69775 11.7549C7.64404 11.8037 7.57568 11.8281 7.49268 11.8281ZM7.20703 7.24316V5.18506C6.86035 5.229 6.57715 5.34619 6.35742 5.53662C6.14258 5.72705 6.03516 5.9541 6.03516 6.21777C6.03516 6.4668 6.12793 6.67188 6.31348 6.83301C6.49902 6.99414 6.78223 7.12598 7.16309 7.22852L7.20703 7.24316ZM7.78564 8.11475V10.3193C8.20068 10.2852 8.52051 10.168 8.74512 9.96777C8.96973 9.7627 9.08203 9.51367 9.08203 9.2207C9.08203 8.95215 8.99414 8.73242 8.81836 8.56152C8.64258 8.39062 8.35205 8.25391 7.94678 8.15137L7.78564 8.11475Z" fill="#FAFAFA"/>
</svg>
