<svg width="18" height="20" viewBox="0 0 18 20" fill="none" xmlns="http://www.w3.org/2000/svg">
<path d="M3.96875 19.5225C3.13086 19.5225 2.48633 19.3027 2.03516 18.8633C1.58984 18.4297 1.36719 17.7969 1.36719 16.9648V11.7002H1.32324C0.936523 11.5947 0.643555 11.3838 0.444336 11.0674C0.250977 10.751 0.154297 10.3555 0.154297 9.88086V7.64844C0.154297 7.05664 0.318359 6.58789 0.646484 6.24219C0.974609 5.89648 1.42578 5.72363 2 5.72363H3.5293C3.29492 5.4834 3.11035 5.20508 2.97559 4.88867C2.84668 4.57227 2.78223 4.22949 2.78223 3.86035C2.78223 3.27441 2.91992 2.75586 3.19531 2.30469C3.47656 1.85352 3.85449 1.49902 4.3291 1.24121C4.80371 0.983398 5.33105 0.854492 5.91113 0.854492C6.56738 0.854492 7.14746 1.03027 7.65137 1.38184C8.16113 1.7334 8.52441 2.22852 8.74121 2.86719C8.95801 2.22852 9.32129 1.7334 9.83105 1.38184C10.3408 1.03027 10.918 0.854492 11.5625 0.854492C12.1484 0.854492 12.6758 0.983398 13.1445 1.24121C13.6191 1.49902 13.9971 1.85352 14.2783 2.30469C14.5596 2.75586 14.7002 3.27441 14.7002 3.86035C14.7002 4.22949 14.6328 4.57227 14.498 4.88867C14.3691 5.20508 14.1875 5.4834 13.9531 5.72363H15.4824C16.0742 5.72363 16.5312 5.89648 16.8535 6.24219C17.1758 6.58789 17.3369 7.05664 17.3369 7.64844V9.88086C17.3369 10.3555 17.2344 10.751 17.0293 11.0674C16.8301 11.3838 16.54 11.5947 16.1592 11.7002H16.1064V16.9648C16.1064 17.7969 15.8838 18.4297 15.4385 18.8633C14.9932 19.3027 14.3545 19.5225 13.5225 19.5225H3.96875ZM7.85352 17.9492V11.8145H3.08105V16.8682C3.08105 17.208 3.1748 17.4717 3.3623 17.6592C3.5498 17.8525 3.81641 17.9492 4.16211 17.9492H7.85352ZM9.62891 17.9492H13.3115C13.6631 17.9492 13.9326 17.8525 14.1201 17.6592C14.3076 17.4717 14.4014 17.208 14.4014 16.8682V11.8145H9.62891V17.9492ZM7.85352 10.2588V7.2793H2.45703C2.24609 7.2793 2.09375 7.32617 2 7.41992C1.91211 7.51367 1.86816 7.66602 1.86816 7.87695V9.65234C1.86816 9.86328 1.91211 10.0186 2 10.1182C2.09375 10.2119 2.24609 10.2588 2.45703 10.2588H7.85352ZM9.62891 10.2588H15.0342C15.2393 10.2588 15.3887 10.2148 15.4824 10.127C15.5762 10.0332 15.623 9.88086 15.623 9.66992V7.87695C15.623 7.66602 15.5762 7.51367 15.4824 7.41992C15.3887 7.32617 15.2393 7.2793 15.0342 7.2793H9.62891V10.2588ZM7.90625 5.72363V4.56348C7.90625 3.94238 7.72754 3.44727 7.37012 3.07812C7.0127 2.70312 6.5791 2.51562 6.06934 2.51562C5.59473 2.51562 5.20801 2.65039 4.90918 2.91992C4.61035 3.18359 4.46094 3.5498 4.46094 4.01855C4.46094 4.49902 4.64551 4.90332 5.01465 5.23145C5.38965 5.55957 5.91406 5.72363 6.58789 5.72363H7.90625ZM9.56738 5.72363H10.8945C11.5684 5.72363 12.0898 5.55957 12.459 5.23145C12.834 4.90332 13.0215 4.49902 13.0215 4.01855C13.0215 3.5498 12.8721 3.18359 12.5732 2.91992C12.2744 2.65039 11.8877 2.51562 11.4131 2.51562C10.9033 2.51562 10.4668 2.70312 10.1035 3.07812C9.74609 3.44727 9.56738 3.94238 9.56738 4.56348V5.72363Z" fill="#999999"/>
</svg>
