<svg width="23" height="20" viewBox="0 0 23 20" fill="none" xmlns="http://www.w3.org/2000/svg">
<path d="M4.69922 8.52344C3.9375 8.52344 3.23763 8.33464 2.59961 7.95703C1.96159 7.57292 1.45052 7.0651 1.06641 6.43359C0.682292 5.79557 0.490234 5.09245 0.490234 4.32422C0.490234 3.55599 0.679036 2.85286 1.05664 2.21484C1.44076 1.57682 1.95182 1.06576 2.58984 0.681641C3.22786 0.297526 3.93099 0.105469 4.69922 0.105469C5.46745 0.105469 6.16732 0.297526 6.79883 0.681641C7.43685 1.06576 7.94792 1.57682 8.33203 2.21484C8.71615 2.85286 8.9082 3.55599 8.9082 4.32422C8.9082 5.09245 8.71615 5.79557 8.33203 6.43359C7.94792 7.0651 7.43685 7.57292 6.79883 7.95703C6.16732 8.33464 5.46745 8.52344 4.69922 8.52344ZM4.20117 6.58008C4.41602 6.58008 4.58203 6.48893 4.69922 6.30664L6.74023 3.10352C6.82487 2.9668 6.86719 2.83333 6.86719 2.70312C6.86719 2.57943 6.8151 2.47201 6.71094 2.38086C6.61328 2.28971 6.49609 2.24414 6.35938 2.24414C6.18359 2.24414 6.03711 2.33529 5.91992 2.51758L4.18164 5.31055L3.41992 4.34375C3.35482 4.25911 3.28646 4.19727 3.21484 4.1582C3.14974 4.11914 3.06836 4.09961 2.9707 4.09961C2.84049 4.09961 2.72656 4.14844 2.62891 4.24609C2.53776 4.34375 2.49219 4.46419 2.49219 4.60742C2.49219 4.75716 2.53451 4.88411 2.61914 4.98828L3.71289 6.30664C3.78451 6.39128 3.85612 6.45964 3.92773 6.51172C4.00586 6.55729 4.09701 6.58008 4.20117 6.58008ZM4.69922 19.832C3.9375 19.832 3.23763 19.64 2.59961 19.2559C1.96159 18.8717 1.45052 18.3607 1.06641 17.7227C0.682292 17.0846 0.490234 16.3848 0.490234 15.623C0.490234 14.8548 0.679036 14.1517 1.05664 13.5137C1.44076 12.8757 1.95182 12.3646 2.58984 11.9805C3.22786 11.5964 3.93099 11.4043 4.69922 11.4043C5.46745 11.4043 6.16732 11.5964 6.79883 11.9805C7.43685 12.3581 7.94792 12.8659 8.33203 13.5039C8.71615 14.1419 8.9082 14.8483 8.9082 15.623C8.9082 16.3848 8.71615 17.0846 8.33203 17.7227C7.94792 18.3607 7.43685 18.8717 6.79883 19.2559C6.16732 19.64 5.46745 19.832 4.69922 19.832ZM4.69922 18.4062C5.20052 18.4062 5.66276 18.2793 6.08594 18.0254C6.50911 17.7715 6.84766 17.4329 7.10156 17.0098C7.35547 16.5866 7.48242 16.1243 7.48242 15.623C7.48242 15.1152 7.35547 14.6497 7.10156 14.2266C6.84766 13.8034 6.50911 13.4648 6.08594 13.2109C5.66276 12.957 5.20052 12.8301 4.69922 12.8301C4.19792 12.8301 3.73568 12.957 3.3125 13.2109C2.88932 13.4648 2.55078 13.8034 2.29688 14.2266C2.04297 14.6497 1.91602 15.1152 1.91602 15.623C1.91602 16.1243 2.04297 16.5866 2.29688 17.0098C2.55078 17.4329 2.88932 17.7715 3.3125 18.0254C3.73568 18.2793 4.19792 18.4062 4.69922 18.4062ZM11.8281 5.06641C11.6198 5.06641 11.444 4.99479 11.3008 4.85156C11.1576 4.70833 11.0859 4.53255 11.0859 4.32422C11.0859 4.1224 11.1576 3.94987 11.3008 3.80664C11.444 3.66341 11.6198 3.5918 11.8281 3.5918H21.6328C21.8411 3.5918 22.0169 3.66341 22.1602 3.80664C22.3099 3.94987 22.3848 4.1224 22.3848 4.32422C22.3848 4.53255 22.3099 4.70833 22.1602 4.85156C22.0169 4.99479 21.8411 5.06641 21.6328 5.06641H11.8281ZM11.8281 16.3555C11.6198 16.3555 11.444 16.2839 11.3008 16.1406C11.1576 15.9974 11.0859 15.8249 11.0859 15.623C11.0859 15.4147 11.1576 15.2389 11.3008 15.0957C11.444 14.9525 11.6198 14.8809 11.8281 14.8809H21.6328C21.8411 14.8809 22.0169 14.9525 22.1602 15.0957C22.3099 15.2389 22.3848 15.4147 22.3848 15.623C22.3848 15.8249 22.3099 15.9974 22.1602 16.1406C22.0169 16.2839 21.8411 16.3555 21.6328 16.3555H11.8281Z" fill="#434343"/>
</svg>
