<svg width="24" height="19" viewBox="0 0 24 19" fill="none" xmlns="http://www.w3.org/2000/svg">
<path d="M14.3086 6.73633C14.1328 6.73633 13.9863 6.67773 13.8691 6.56055C13.752 6.44336 13.6934 6.30013 13.6934 6.13086C13.6934 5.96159 13.752 5.82161 13.8691 5.71094C13.9863 5.59375 14.1328 5.53516 14.3086 5.53516H19.6406C19.8099 5.53516 19.9531 5.59375 20.0703 5.71094C20.1875 5.82161 20.2461 5.96159 20.2461 6.13086C20.2461 6.30013 20.1875 6.44336 20.0703 6.56055C19.9531 6.67773 19.8099 6.73633 19.6406 6.73633H14.3086ZM14.3086 10.5645C14.1328 10.5645 13.9863 10.5059 13.8691 10.3887C13.752 10.2715 13.6934 10.125 13.6934 9.94922C13.6934 9.78646 13.752 9.64974 13.8691 9.53906C13.9863 9.42188 14.1328 9.36328 14.3086 9.36328H19.6406C19.8099 9.36328 19.9531 9.42188 20.0703 9.53906C20.1875 9.64974 20.2461 9.78646 20.2461 9.94922C20.2461 10.125 20.1875 10.2715 20.0703 10.3887C19.9531 10.5059 19.8099 10.5645 19.6406 10.5645H14.3086ZM14.3086 14.3828C14.1328 14.3828 13.9863 14.3275 13.8691 14.2168C13.752 14.0996 13.6934 13.9596 13.6934 13.7969C13.6934 13.6276 13.752 13.4844 13.8691 13.3672C13.9863 13.2435 14.1328 13.1816 14.3086 13.1816H19.6406C19.8099 13.1816 19.9531 13.2435 20.0703 13.3672C20.1875 13.4844 20.2461 13.6276 20.2461 13.7969C20.2461 13.9596 20.1875 14.0996 20.0703 14.2168C19.9531 14.3275 19.8099 14.3828 19.6406 14.3828H14.3086ZM4.13281 14.3828C3.97656 14.3828 3.85612 14.334 3.77148 14.2363C3.69336 14.1387 3.6543 14.0182 3.6543 13.875C3.6543 13.6471 3.73893 13.3509 3.9082 12.9863C4.08398 12.6217 4.34766 12.2572 4.69922 11.8926C5.05729 11.5215 5.50326 11.2122 6.03711 10.9648C6.57747 10.7174 7.21224 10.5938 7.94141 10.5938C8.67057 10.5938 9.30534 10.7174 9.8457 10.9648C10.3861 11.2122 10.832 11.5215 11.1836 11.8926C11.5417 12.2572 11.8053 12.6217 11.9746 12.9863C12.1504 13.3509 12.2383 13.6471 12.2383 13.875C12.2383 14.0182 12.196 14.1387 12.1113 14.2363C12.0332 14.334 11.916 14.3828 11.7598 14.3828H4.13281ZM7.94141 9.91016C7.35547 9.91016 6.85091 9.6888 6.42773 9.24609C6.01107 8.80339 5.80273 8.24674 5.80273 7.57617C5.80273 7.15951 5.89714 6.77865 6.08594 6.43359C6.28125 6.08854 6.54167 5.81185 6.86719 5.60352C7.19271 5.39518 7.55078 5.29102 7.94141 5.29102C8.33854 5.29102 8.69661 5.39518 9.01562 5.60352C9.34115 5.81185 9.59831 6.08854 9.78711 6.43359C9.98242 6.77865 10.0801 7.15951 10.0801 7.57617C10.0801 8.24674 9.87174 8.80339 9.45508 9.24609C9.03841 9.6888 8.53385 9.91016 7.94141 9.91016ZM3.55664 18.9434C2.53451 18.9434 1.76628 18.6895 1.25195 18.1816C0.744141 17.6803 0.490234 16.9284 0.490234 15.9258V3.99219C0.490234 2.98307 0.744141 2.22786 1.25195 1.72656C1.76628 1.21875 2.53451 0.964844 3.55664 0.964844H20.4512C21.4798 0.964844 22.248 1.21875 22.7559 1.72656C23.2637 2.23438 23.5176 2.98958 23.5176 3.99219V15.9258C23.5176 16.9284 23.2637 17.6803 22.7559 18.1816C22.248 18.6895 21.4798 18.9434 20.4512 18.9434H3.55664ZM3.57617 17.3711H20.4316C20.9134 17.3711 21.2845 17.2441 21.5449 16.9902C21.8118 16.7298 21.9453 16.3457 21.9453 15.8379V4.08008C21.9453 3.57227 21.8118 3.18815 21.5449 2.92773C21.2845 2.66732 20.9134 2.53711 20.4316 2.53711H3.57617C3.08789 2.53711 2.71354 2.66732 2.45312 2.92773C2.19271 3.18815 2.0625 3.57227 2.0625 4.08008V15.8379C2.0625 16.3457 2.19271 16.7298 2.45312 16.9902C2.71354 17.2441 3.08789 17.3711 3.57617 17.3711Z" fill="#434343"/>
</svg>
