<svg width="21" height="21" viewBox="0 0 21 21" fill="none" xmlns="http://www.w3.org/2000/svg">
<path d="M10.709 20.9102C9.34831 20.9102 8.06576 20.6497 6.86133 20.1289C5.66341 19.6081 4.60547 18.8887 3.6875 17.9707C2.76953 17.0527 2.05013 15.9948 1.5293 14.7969C1.00846 13.5924 0.748047 12.3099 0.748047 10.9492C0.748047 9.58854 1.00846 8.30924 1.5293 7.11133C2.05013 5.9069 2.76628 4.8457 3.67773 3.92773C4.5957 3.00977 5.65365 2.29036 6.85156 1.76953C8.05599 1.2487 9.33854 0.988281 10.6992 0.988281C12.0599 0.988281 13.3424 1.2487 14.5469 1.76953C15.7513 2.29036 16.8125 3.00977 17.7305 3.92773C18.6484 4.8457 19.3678 5.9069 19.8887 7.11133C20.4095 8.30924 20.6699 9.58854 20.6699 10.9492C20.6699 12.3099 20.4095 13.5924 19.8887 14.7969C19.3678 15.9948 18.6484 17.0527 17.7305 17.9707C16.8125 18.8887 15.7513 19.6081 14.5469 20.1289C13.349 20.6497 12.0697 20.9102 10.709 20.9102ZM10.709 19.25C11.8613 19.25 12.9388 19.0352 13.9414 18.6055C14.944 18.1758 15.8262 17.5833 16.5879 16.8281C17.3496 16.0664 17.9421 15.1842 18.3652 14.1816C18.7949 13.179 19.0098 12.1016 19.0098 10.9492C19.0098 9.79688 18.7949 8.7194 18.3652 7.7168C17.9355 6.71419 17.3398 5.83203 16.5781 5.07031C15.8229 4.30859 14.9408 3.71615 13.9316 3.29297C12.929 2.86328 11.8516 2.64844 10.6992 2.64844C9.54688 2.64844 8.4694 2.86328 7.4668 3.29297C6.46419 3.71615 5.58529 4.30859 4.83008 5.07031C4.07487 5.83203 3.48242 6.71419 3.05273 7.7168C2.62956 8.7194 2.41797 9.79688 2.41797 10.9492C2.41797 12.1016 2.62956 13.179 3.05273 14.1816C3.48242 15.1842 4.07487 16.0664 4.83008 16.8281C5.5918 17.5833 6.47396 18.1758 7.47656 18.6055C8.47917 19.0352 9.55664 19.25 10.709 19.25ZM9 16.4082C8.79818 16.4082 8.62891 16.3431 8.49219 16.2129C8.35547 16.0827 8.28711 15.9199 8.28711 15.7246C8.28711 15.5293 8.35547 15.3665 8.49219 15.2363C8.62891 15.1061 8.79818 15.041 9 15.041H10.2109V10.5586H9.16602C8.96419 10.5586 8.79492 10.4935 8.6582 10.3633C8.52148 10.2331 8.45312 10.0703 8.45312 9.875C8.45312 9.67969 8.52148 9.51693 8.6582 9.38672C8.79492 9.25651 8.96419 9.19141 9.16602 9.19141H11.002C11.2493 9.19141 11.4382 9.27279 11.5684 9.43555C11.6986 9.5918 11.7637 9.80339 11.7637 10.0703V15.041H12.9746C13.1764 15.041 13.3457 15.1061 13.4824 15.2363C13.6191 15.3665 13.6875 15.5293 13.6875 15.7246C13.6875 15.9199 13.6191 16.0827 13.4824 16.2129C13.3457 16.3431 13.1764 16.4082 12.9746 16.4082H9ZM10.6211 7.56055C10.2695 7.56055 9.97005 7.43685 9.72266 7.18945C9.47526 6.94206 9.35156 6.64258 9.35156 6.29102C9.35156 5.93294 9.47526 5.63021 9.72266 5.38281C9.97005 5.13542 10.2695 5.01172 10.6211 5.01172C10.9792 5.01172 11.2786 5.13542 11.5195 5.38281C11.7669 5.63021 11.8906 5.93294 11.8906 6.29102C11.8906 6.64258 11.7669 6.94206 11.5195 7.18945C11.2786 7.43685 10.9792 7.56055 10.6211 7.56055Z" fill="#434343"/>
</svg>
