<svg width="16" height="16" viewBox="0 0 16 16" fill="none" xmlns="http://www.w3.org/2000/svg">
<path d="M7.26025 15.417C7.00146 15.417 6.78174 15.3462 6.60107 15.2046C6.42041 15.063 6.30078 14.8628 6.24219 14.604L5.9126 13.1978L5.56104 13.0732L4.33789 13.835C4.11816 13.9766 3.89111 14.0327 3.65674 14.0034C3.42725 13.9741 3.22217 13.8691 3.0415 13.6885L2.01611 12.6631C1.82568 12.4775 1.71826 12.27 1.69385 12.0405C1.66943 11.811 1.72559 11.5864 1.8623 11.3667L2.63135 10.1436L2.50684 9.80664L1.10059 9.46973C0.84668 9.41113 0.646484 9.2915 0.5 9.11084C0.358398 8.93018 0.287598 8.71289 0.287598 8.45898V7.00146C0.287598 6.74268 0.358398 6.52539 0.5 6.34961C0.641602 6.16895 0.841797 6.04688 1.10059 5.9834L2.49951 5.65381L2.63135 5.29492L1.8623 4.07178C1.7207 3.85693 1.66211 3.63477 1.68652 3.40527C1.71582 3.17578 1.82324 2.96826 2.00879 2.78271L3.03418 1.75C3.21973 1.57422 3.4248 1.47168 3.64941 1.44238C3.87891 1.41309 4.10352 1.4668 4.32324 1.60352L5.55371 2.37256L5.9126 2.2334L6.24219 0.819824C6.30078 0.565918 6.42041 0.368164 6.60107 0.226562C6.78174 0.0800781 7.00146 0.00683594 7.26025 0.00683594H8.73975C8.99854 0.00683594 9.21582 0.0800781 9.3916 0.226562C9.57227 0.368164 9.69189 0.565918 9.75049 0.819824L10.0728 2.2334L10.439 2.37256L11.6694 1.60352C11.8843 1.4668 12.1064 1.41309 12.3359 1.44238C12.5654 1.47168 12.7705 1.57422 12.9512 1.75L13.9839 2.78271C14.1646 2.96826 14.2695 3.17578 14.2988 3.40527C14.3281 3.63477 14.272 3.85693 14.1304 4.07178L13.354 5.29492L13.4932 5.65381L14.8921 5.9834C15.146 6.04688 15.3438 6.16895 15.4854 6.34961C15.6318 6.52539 15.7051 6.74268 15.7051 7.00146V8.45898C15.7051 8.71289 15.6318 8.93018 15.4854 9.11084C15.3438 9.2915 15.146 9.41113 14.8921 9.46973L13.4858 9.80664L13.354 10.1436L14.1304 11.3667C14.2671 11.5864 14.3208 11.811 14.2915 12.0405C14.2671 12.27 14.1621 12.4775 13.9766 12.6631L12.9438 13.6885C12.7632 13.8691 12.5581 13.9741 12.3286 14.0034C12.0991 14.0327 11.8745 13.9766 11.6548 13.835L10.4243 13.0732L10.0728 13.1978L9.75049 14.604C9.69189 14.8628 9.57227 15.063 9.3916 15.2046C9.21582 15.3462 8.99854 15.417 8.73975 15.417H7.26025ZM7.35547 14.5454H8.64453C8.81543 14.5454 8.91553 14.4624 8.94482 14.2964L9.36963 12.5166C9.56982 12.4629 9.7627 12.3994 9.94824 12.3262C10.1338 12.248 10.2998 12.1675 10.4463 12.0845L11.999 13.0513C12.1357 13.144 12.27 13.127 12.4019 13L13.2954 12.1064C13.4126 11.9893 13.4248 11.8574 13.332 11.7109L12.3726 10.1655C12.4507 10.0142 12.5264 9.84814 12.5996 9.66748C12.6777 9.48193 12.7437 9.28906 12.7974 9.08887L14.5845 8.67139C14.7505 8.63721 14.8335 8.53467 14.8335 8.36377V7.08936C14.8335 6.92334 14.7505 6.8208 14.5845 6.78174L12.8047 6.36426C12.751 6.14941 12.6826 5.94922 12.5996 5.76367C12.5166 5.57812 12.4434 5.41699 12.3799 5.28027L13.3394 3.73486C13.4321 3.5835 13.4199 3.44922 13.3027 3.33203L12.4092 2.4458C12.2822 2.32373 12.1455 2.30664 11.999 2.39453L10.4463 3.354C10.2998 3.27588 10.1338 3.2002 9.94824 3.12695C9.76758 3.04883 9.57471 2.98047 9.36963 2.92188L8.94482 1.13477C8.91553 0.96875 8.81543 0.885742 8.64453 0.885742H7.35547C7.18457 0.885742 7.08203 0.96875 7.04785 1.13477L6.63037 2.91455C6.43506 2.96826 6.23975 3.03418 6.04443 3.1123C5.854 3.19043 5.68311 3.26855 5.53174 3.34668L3.98633 2.39453C3.84473 2.30664 3.71045 2.32373 3.5835 2.4458L2.68262 3.33203C2.57031 3.44922 2.55811 3.5835 2.646 3.73486L3.60547 5.28027C3.54688 5.41699 3.47607 5.58057 3.39307 5.771C3.31006 5.95654 3.2417 6.1543 3.18799 6.36426L1.4082 6.78174C1.24707 6.8208 1.1665 6.92334 1.1665 7.08936V8.36377C1.1665 8.53467 1.24707 8.63721 1.4082 8.67139L3.19531 9.08887C3.24902 9.28906 3.31494 9.48193 3.39307 9.66748C3.47119 9.84814 3.54688 10.0142 3.62012 10.1655L2.65332 11.7109C2.56543 11.8574 2.58008 11.9893 2.69727 12.1064L3.59082 13C3.72266 13.127 3.85449 13.144 3.98633 13.0513L5.53906 12.0845C5.69043 12.1675 5.85889 12.248 6.04443 12.3262C6.22998 12.3994 6.42529 12.4629 6.63037 12.5166L7.04785 14.2964C7.08203 14.4624 7.18457 14.5454 7.35547 14.5454ZM8 10.5171C7.4873 10.5171 7.01855 10.3901 6.59375 10.1362C6.16895 9.88232 5.82959 9.54297 5.57568 9.11816C5.32178 8.69336 5.19482 8.22461 5.19482 7.71191C5.19482 7.2041 5.32178 6.74023 5.57568 6.32031C5.83447 5.89551 6.17383 5.55615 6.59375 5.30225C7.01855 5.04834 7.4873 4.92139 8 4.92139C8.5127 4.92139 8.979 5.04834 9.39893 5.30225C9.82373 5.55615 10.1631 5.89551 10.417 6.32031C10.6709 6.74023 10.7979 7.2041 10.7979 7.71191C10.7979 8.22461 10.6709 8.69336 10.417 9.11816C10.1631 9.54297 9.82373 9.88232 9.39893 10.1362C8.979 10.3901 8.5127 10.5171 8 10.5171ZM8 9.64551C8.34668 9.64551 8.66406 9.55762 8.95215 9.38184C9.24512 9.20117 9.47705 8.9668 9.64795 8.67871C9.82373 8.38574 9.91162 8.06348 9.91162 7.71191C9.91162 7.36523 9.82373 7.04785 9.64795 6.75977C9.47705 6.4668 9.24512 6.23242 8.95215 6.05664C8.66406 5.88086 8.34668 5.79297 8 5.79297C7.65332 5.79297 7.3335 5.88086 7.04053 6.05664C6.74756 6.23242 6.51318 6.4668 6.3374 6.75977C6.16162 7.04785 6.07373 7.36523 6.07373 7.71191C6.07373 8.06348 6.16162 8.38574 6.3374 8.67871C6.51318 8.97168 6.74512 9.20605 7.0332 9.38184C7.32617 9.55762 7.64844 9.64551 8 9.64551Z" fill="#FAFAFA"/>
</svg>
