<svg width="17" height="23" viewBox="0 0 17 23" fill="none" xmlns="http://www.w3.org/2000/svg">
<path d="M7.51367 22.0957C6.13346 22.0957 4.92578 21.7995 3.89062 21.207C2.85547 20.6211 2.04818 19.7812 1.46875 18.6875C0.895833 17.5872 0.609375 16.2754 0.609375 14.752V6.36328C0.609375 5.8099 0.76888 5.36393 1.08789 5.02539C1.4069 4.68685 1.82031 4.51758 2.32812 4.51758C2.53646 4.51758 2.73503 4.55339 2.92383 4.625C3.11263 4.69661 3.27214 4.80078 3.40234 4.9375V3.85352C3.40234 3.31315 3.55534 2.88021 3.86133 2.55469C4.17383 2.22266 4.58398 2.05664 5.0918 2.05664C5.4694 2.05664 5.78516 2.18359 6.03906 2.4375C6.11068 1.95573 6.30273 1.56836 6.61523 1.27539C6.92773 0.982422 7.32161 0.835938 7.79688 0.835938C8.27865 0.835938 8.67253 0.982422 8.97852 1.27539C9.28451 1.56185 9.47005 1.95573 9.53516 2.45703C9.67188 2.32682 9.82812 2.22917 10.0039 2.16406C10.1797 2.09245 10.3685 2.05664 10.5703 2.05664C11.1172 2.05664 11.5534 2.22591 11.8789 2.56445C12.2109 2.89648 12.377 3.34896 12.377 3.92188V11.7539C12.377 11.8125 12.3997 11.8418 12.4453 11.8418C12.4844 11.8418 12.5137 11.819 12.5332 11.7734L13.168 10.2109C13.3307 9.82682 13.5553 9.53711 13.8418 9.3418C14.1283 9.13997 14.4408 9.03906 14.7793 9.03906C15.2741 9.03906 15.694 9.20508 16.0391 9.53711C16.3841 9.86263 16.5566 10.2826 16.5566 10.7969C16.5566 11.0964 16.498 11.4121 16.3809 11.7441L14.6621 16.5781C14.0111 18.4076 13.0866 19.7845 11.8887 20.709C10.6908 21.6335 9.23242 22.0957 7.51367 22.0957ZM7.46484 20.748C8.82552 20.748 10.0169 20.3997 11.0391 19.7031C12.0612 19.0065 12.8717 17.8249 13.4707 16.1582L15.2578 11.168C15.3424 10.9271 15.3555 10.722 15.2969 10.5527C15.2448 10.3835 15.1243 10.263 14.9355 10.1914C14.7663 10.1263 14.597 10.1296 14.4277 10.2012C14.265 10.2728 14.138 10.416 14.0469 10.6309L12.6406 13.7656C12.5299 14.013 12.3997 14.1823 12.25 14.2734C12.1068 14.3646 11.9473 14.4102 11.7715 14.4102C11.5697 14.4102 11.4036 14.3418 11.2734 14.2051C11.1432 14.0684 11.0781 13.8796 11.0781 13.6387V4.0293C11.0781 3.82096 11.013 3.65169 10.8828 3.52148C10.7591 3.38477 10.5964 3.31641 10.3945 3.31641C10.1927 3.31641 10.0267 3.38477 9.89648 3.52148C9.77279 3.65169 9.71094 3.82096 9.71094 4.0293V10.9922C9.71094 11.1615 9.64909 11.3047 9.52539 11.4219C9.40169 11.5391 9.25521 11.5977 9.08594 11.5977C8.91667 11.5977 8.77018 11.5391 8.64648 11.4219C8.5293 11.3047 8.4707 11.1615 8.4707 10.9922V2.81836C8.4707 2.61003 8.4056 2.4375 8.27539 2.30078C8.15169 2.16406 7.99219 2.0957 7.79688 2.0957C7.59505 2.0957 7.42904 2.16406 7.29883 2.30078C7.16862 2.4375 7.10352 2.61003 7.10352 2.81836V10.9922C7.10352 11.168 7.03841 11.3145 6.9082 11.4316C6.78451 11.5423 6.64128 11.5977 6.47852 11.5977C6.31576 11.5977 6.17253 11.5423 6.04883 11.4316C5.92513 11.3145 5.86328 11.168 5.86328 10.9922V4.0293C5.86328 3.82096 5.79818 3.65169 5.66797 3.52148C5.53776 3.38477 5.37174 3.31641 5.16992 3.31641C4.9681 3.31641 4.80534 3.38477 4.68164 3.52148C4.56445 3.65169 4.50586 3.82096 4.50586 4.0293V11.4902C4.50586 11.666 4.44076 11.8125 4.31055 11.9297C4.18685 12.0404 4.04036 12.0957 3.87109 12.0957C3.71484 12.0957 3.57487 12.0404 3.45117 11.9297C3.32747 11.8125 3.26562 11.666 3.26562 11.4902V6.5C3.26562 6.29167 3.20052 6.1224 3.07031 5.99219C2.9401 5.86198 2.77409 5.79688 2.57227 5.79688C2.37044 5.79688 2.20768 5.86198 2.08398 5.99219C1.96029 6.1224 1.89844 6.29167 1.89844 6.5V14.5957C1.89844 15.9043 2.12305 17.0176 2.57227 17.9355C3.02148 18.8535 3.65951 19.5501 4.48633 20.0254C5.31966 20.5072 6.3125 20.748 7.46484 20.748Z" fill="#434343"/>
</svg>
