<svg width="30" height="30" viewBox="0 0 30 30" fill="none" xmlns="http://www.w3.org/2000/svg">
<path fill-rule="evenodd" clip-rule="evenodd" d="M2 0C0.895431 0 0 0.89543 0 2V3.00004C0 4.10461 0.89543 5.00004 2 5.00004H28C29.1046 5.00004 30 4.10461 30 3.00004V2C30 0.89543 29.1046 0 28 0H2ZM0 14.5003C0 13.3958 0.895431 12.5003 2 12.5003H28C29.1046 12.5003 30 13.3958 30 14.5003V15.5004C30 16.605 29.1046 17.5004 28 17.5004H2C0.89543 17.5004 0 16.605 0 15.5004V14.5003ZM0 27C0 25.8954 0.895431 25 2 25H28C29.1046 25 30 25.8954 30 27V28C30 29.1046 29.1046 30 28 30H2C0.89543 30 0 29.1046 0 28V27Z" fill="#272727"/>
</svg>
